<svg width="24" height="24" viewBox="0 0 24 24" fill="black" xmlns="http://www.w3.org/2000/svg">
<path d="M19.1604 8.60004C19.1604 8.75664 19.1604 8.91324 19.1604 9.0694C19.1604 13.8435 15.4804 19.3219 8.68014 19.3219C6.6 19.3219 4.67994 18.6959 3 17.6784C3.32016 17.6784 3.55983 17.7567 3.87999 17.7567C5.63997 17.7567 7.15983 17.2091 8.44002 16.1916C6.84012 16.1916 5.47989 15.0959 5.0001 13.6873C5.24022 13.7656 5.47989 13.7656 5.72001 13.7656C6.04017 13.7656 6.35988 13.6873 6.68004 13.609C5.0001 13.2958 3.71991 11.809 3.71991 10.0873C3.71991 10.0873 3.71991 10.0873 3.71991 10.009C4.19969 10.2439 4.75998 10.4784 5.39985 10.4784C4.43982 9.8524 3.79995 8.75664 3.79995 7.50428C3.79995 6.87832 3.96003 6.25191 4.27973 5.70426C6.11975 7.89578 8.83977 9.3043 11.8799 9.4609C11.7999 9.226 11.7999 8.91324 11.7999 8.60004C11.7999 6.64342 13.4798 5 15.4799 5C16.52 5 17.48 5.46936 18.1999 6.17406C18.9999 6.01746 19.7998 5.70471 20.5198 5.3132C20.2796 6.17406 19.6398 6.87832 18.9199 7.26983C19.6398 7.19152 20.3597 6.95662 21 6.72217C20.4402 7.42643 19.8803 8.05238 19.1604 8.60004Z" />
</svg>
