<svg width="24" height="24" viewBox="0 0 24 24" fill="black" xmlns="http://www.w3.org/2000/svg">
<path d="M16.0957 3H7.96733C5.25788 3 3 5.25 3 7.95V15.9859C3 18.75 5.25788 21 7.96733 21H16.0313C18.8051 21 20.9987 18.75 20.9987 16.05V7.95C21.063 5.25 18.8051 3 16.0957 3ZM19.4503 16.05C19.4503 17.9141 17.902 19.3929 16.0957 19.3929H7.96733C6.09668 19.3929 4.61269 17.85 4.61269 16.05V7.95C4.61269 6.08588 6.16103 4.60706 7.96733 4.60706H16.0313C17.902 4.60706 19.386 6.15 19.386 7.95L19.4503 16.05Z M12.0315 7.37109C9.45132 7.37109 7.38649 9.42816 7.38649 11.9999C7.38649 14.5717 9.45076 16.6287 12.0315 16.6287C14.6123 16.6287 16.6765 14.5717 16.6765 11.9999C16.6765 9.42872 14.6123 7.37109 12.0315 7.37109ZM12.0315 15.0211C10.3545 15.0211 8.99975 13.6711 8.99975 11.9999C8.99975 10.3287 10.3545 8.97872 12.0315 8.97872C13.7085 8.97872 15.0633 10.3287 15.0633 11.9999C15.0633 13.6711 13.7085 15.0211 12.0315 15.0211Z M16.8696 6.02148C16.5473 6.02148 16.2887 6.1503 16.0308 6.34267C15.8372 6.53561 15.7085 6.8568 15.7085 7.17855C15.7085 7.5003 15.8377 7.75736 16.0308 8.01442C16.2244 8.20736 16.5467 8.33561 16.8696 8.33561C17.1924 8.33561 17.4504 8.2068 17.7084 8.01442C17.902 7.82148 18.0307 7.5003 18.0307 7.17855C18.0307 6.8568 17.9014 6.53561 17.7084 6.34267C17.5148 6.14973 17.1924 6.02148 16.8696 6.02148Z" />
</svg>
