<svg width="24" height="24" viewBox="0 0 24 24" fill="none" xmlns="http://www.w3.org/2000/svg">
<path d="M7.55556 5.77722C7.55556 6.72111 6.92444 7.53389 5.77667 7.53389C4.69667 7.53389 4 6.76778 4 5.82389C4 4.855 4.67556 4 5.77778 4C6.88 4 7.53444 4.80833 7.55556 5.77722ZM4 19.9994V8.44389H7.55556V19.9994H4ZM9.33333 12.3939C9.33333 11.0206 9.28778 9.87278 9.24278 8.88167H12.4372L12.5956 10.4133H12.6633C13.1133 9.69222 14.2156 8.63555 16.0606 8.63555C18.3111 8.63555 20 10.1422 20 13.3839V19.9989H16.4444V13.9C16.4444 12.4833 15.905 11.4022 14.6667 11.4022C13.7228 11.4022 13.25 12.1667 13.0017 12.7967C12.9111 13.0222 12.8889 13.3372 12.8889 13.6528V19.9983H9.33333V12.3928V12.3939Z" fill="#ebf0f9"/>
</svg>
